{
	"buffers":[{
		"uri":"data:application/octet-stream;base64,",
		"byteLength":7220
	},
	{
		"uri":"data:application/octet-stream;base64,",
		"byteLength":6536
	},
	{
		"uri":"data:application/octet-stream;base64,",
		"byteLength":5776
	},
	{
		"uri":"data:application/octet-stream;base64,",
		"byteLength":6536
	},
	{
		"uri":"data:application/octet-stream;base64,",
		"byteLength":5776
	},
	{
		"uri":"data:application/octet-stream;base64,",
		"byteLength":840
	},
	{
		"uri":"data:application/octet-stream;base64,",
		"byteLength":840
	},
	{
		"uri":"data:application/octet-stream;base64,",
		"byteLength":1168
	},
	{
		"uri":"data:application/octet-stream;base64,",
		"byteLength":560
	},
	{
		"uri":"data:application/octet-stream;base64,",
		"byteLength":140
	},
	{
		"uri":"data:application/octet-stream;base64,",
		"byteLength":560
	},
	{
		"uri":"data:application/octet-stream;base64,",
		"byteLength":140
	}],
	"asset":{
		"version":"2.0",
		"generator":"Created using the official Cinema 4D glTF Exporter 1.000x284978"
	},
	"scenes":[{
		"nodes":[0]
	}],
	"nodes":[{
		"name":"Null.1",
		"translation":[-248.1568603515625,
		29.492916107177736,
		-206.0658721923828],
		"rotation":[0.004362720530480146,
		-0.6960529088973999,
		0.0018504838226363063,
		-0.717974841594696],
		"scale":[1.0,
		1.0,
		1.0],
		"children":[1]
	},
	{
		"name":"Null",
		"translation":[-212.42076110839845,
		11.198624610900879,
		0.02213146723806858],
		"rotation":[-0.0018453429220244289,
		0.00023673426767345518,
		-0.00436489749699831,
		-0.9999887347221375],
		"scale":[1.0,
		1.0,
		1.0],
		"children":[2,
		3,
		4,
		5,
		6]
	},
	{
		"name":"Cube",
		"translation":[218.29086303710938,
		233.36399841308595,
		1.2434497875801754e-14],
		"rotation":[0.0,
		0.0,
		0.0,
		-1.0],
		"scale":[0.23000000417232514,
		1.0396305322647095,
		1.0],
		"mesh":0
	},
	{
		"name":"Cube.1",
		"translation":[203.71937561035157,
		232.36399841308595,
		4.440892098500626e-15],
		"rotation":[0.0,
		0.0,
		0.0,
		-1.0],
		"scale":[0.2800000011920929,
		1.0298614501953126,
		1.0],
		"mesh":1
	},
	{
		"name":"Cube.1",
		"translation":[212.0,
		18.0,
		-6.217248937900877e-15],
		"rotation":[0.0,
		0.0,
		0.0,
		-1.0],
		"scale":[1.0,
		1.0,
		1.0],
		"mesh":2
	},
	{
		"name":"Cube",
		"translation":[209.0,
		-249.0,
		-8.881784197001253e-16],
		"rotation":[0.0,
		0.0,
		0.0,
		-1.0],
		"scale":[1.0,
		1.0,
		1.0],
		"mesh":3
	},
	{
		"name":"Boole",
		"translation":[0.0,
		-6.0,
		0.0],
		"rotation":[0.0,
		0.0,
		0.0,
		-1.0],
		"scale":[1.0,
		1.0,
		1.0],
		"children":[7,
		12]
	},
	{
		"name":"Boole.1",
		"translation":[0.0,
		6.0,
		0.0],
		"rotation":[0.0,
		0.0,
		0.0,
		-1.0],
		"scale":[1.0,
		1.0,
		1.0],
		"children":[8,
		9]
	},
	{
		"name":"Cube",
		"translation":[211.0,
		-3.315031257482379e-16,
		-1.2434497875801754e-14],
		"rotation":[0.0,
		0.0,
		0.0,
		-1.0],
		"scale":[1.0,
		1.0,
		1.0],
		"mesh":4
	},
	{
		"name":"Cube.1",
		"translation":[303.0,
		0.0,
		0.0],
		"rotation":[0.0,
		0.0,
		0.0,
		-1.0],
		"scale":[1.0,
		1.0,
		1.0],
		"children":[10,
		11]
	},
	{
		"name":"Cube.1",
		"translation":[0.0,
		1.259061668883212e-16,
		-1.5987211554602255e-14],
		"rotation":[0.0,
		0.0,
		0.0,
		-1.0],
		"scale":[1.0,
		1.0,
		1.0],
		"mesh":5
	},
	{
		"name":"Cube.1-Window 2",
		"translation":[0.0,
		1.259061668883212e-16,
		-1.5987211554602255e-14],
		"rotation":[0.0,
		0.0,
		0.0,
		-1.0],
		"scale":[1.0,
		1.0,
		1.0],
		"mesh":6
	},
	{
		"name":"Cube.1",
		"translation":[156.34884643554688,
		6.0,
		5.684341886080802e-14],
		"rotation":[0.0,
		0.0,
		0.0,
		-1.0],
		"scale":[1.0,
		1.0,
		1.0],
		"children":[13,
		14]
	},
	{
		"name":"Cube.1",
		"translation":[0.0,
		-1.0167566446647888e-15,
		-1.7763568394002506e-15],
		"rotation":[0.0,
		0.0,
		0.0,
		-1.0],
		"scale":[1.0,
		1.0,
		1.0],
		"mesh":7
	},
	{
		"name":"Cube.1-Window Material",
		"translation":[0.0,
		-1.0167566446647888e-15,
		-1.7763568394002506e-15],
		"rotation":[0.0,
		0.0,
		0.0,
		-1.0],
		"scale":[1.0,
		1.0,
		1.0],
		"mesh":8
	}],
	"meshes":[{
		"name":"Cube",
		"primitives":[{
			"attributes":{
				"POSITION":3,
				"NORMAL":4,
				"TEXCOORD_0":5
			},
			"indices":2
		}]
	},
	{
		"name":"Cube.1",
		"primitives":[{
			"attributes":{
				"POSITION":9,
				"NORMAL":10,
				"TEXCOORD_0":11
			},
			"indices":8
		}]
	},
	{
		"name":"Cube.1",
		"primitives":[{
			"attributes":{
				"POSITION":15,
				"NORMAL":16,
				"TEXCOORD_0":17
			},
			"indices":14
		}]
	},
	{
		"name":"Cube",
		"primitives":[{
			"attributes":{
				"POSITION":19,
				"NORMAL":20,
				"TEXCOORD_0":21
			},
			"indices":18
		}]
	},
	{
		"name":"Cube",
		"primitives":[{
			"attributes":{
				"POSITION":23,
				"NORMAL":24,
				"TEXCOORD_0":25
			},
			"indices":22
		}]
	},
	{
		"name":"Cube.1",
		"primitives":[{
			"attributes":{
				"POSITION":27,
				"NORMAL":28,
				"TEXCOORD_0":29
			},
			"indices":26
		}]
	},
	{
		"name":"Cube.1-Window 2",
		"primitives":[{
			"attributes":{
				"POSITION":31,
				"NORMAL":32,
				"TEXCOORD_0":33
			},
			"indices":30,
			"material":0
		}]
	},
	{
		"name":"Cube.1",
		"primitives":[{
			"attributes":{
				"POSITION":35,
				"NORMAL":36,
				"TEXCOORD_0":37
			},
			"indices":34
		}]
	},
	{
		"name":"Cube.1-Window Material",
		"primitives":[{
			"attributes":{
				"POSITION":39,
				"NORMAL":40,
				"TEXCOORD_0":41
			},
			"indices":38,
			"material":1
		}]
	}],
	"accessors":[{
		"bufferView":0,
		"type":"SCALAR",
		"componentType":5126,
		"count":361,
		"byteOffset":0,
		"min":[0.0],
		"max":[12.0]
	},
	{
		"bufferView":0,
		"type":"VEC4",
		"componentType":5126,
		"count":361,
		"byteOffset":1444,
		"min":[-0.0018225063104182482,
		-0.9999850392341614,
		-0.004738891497254372,
		-0.999965250492096],
		"max":[0.00473894365131855,
		-0.004989332053810358,
		0.004352581221610308,
		0.9999763369560242]
	},
	{
		"bufferView":1,
		"type":"SCALAR",
		"componentType":5123,
		"count":612,
		"byteOffset":0,
		"min":[0],
		"max":[165]
	},
	{
		"bufferView":2,
		"type":"VEC3",
		"componentType":5126,
		"count":166,
		"byteOffset":0,
		"min":[-5.8252034187316898,
		-424.9092102050781,
		-107.25128936767578],
		"max":[5.8252034187316898,
		2.5933480262756349,
		107.25128936767578]
	},
	{
		"bufferView":2,
		"type":"VEC3",
		"componentType":5126,
		"count":166,
		"byteOffset":12,
		"min":[-0.983273983001709,
		-0.9865117073059082,
		-0.9832738041877747],
		"max":[0.983273983001709,
		0.9865115880966187,
		0.9832738041877747]
	},
	{
		"bufferView":2,
		"type":"VEC2",
		"componentType":5126,
		"count":166,
		"byteOffset":24,
		"min":[0.0,
		0.0],
		"max":[1.0,
		1.0]
	},
	{
		"bufferView":3,
		"type":"SCALAR",
		"componentType":5126,
		"count":361,
		"byteOffset":0,
		"min":[0.0],
		"max":[12.0]
	},
	{
		"bufferView":3,
		"type":"VEC3",
		"componentType":5126,
		"count":361,
		"byteOffset":1444,
		"min":[0.23000000417232514,
		0.039488859474658969,
		1.0],
		"max":[0.23000000417232514,
		1.042225956916809,
		1.0]
	},
	{
		"bufferView":4,
		"type":"SCALAR",
		"componentType":5123,
		"count":612,
		"byteOffset":0,
		"min":[0],
		"max":[165]
	},
	{
		"bufferView":5,
		"type":"VEC3",
		"componentType":5126,
		"count":166,
		"byteOffset":0,
		"min":[-5.8252034187316898,
		-424.9092102050781,
		-107.25128936767578],
		"max":[5.8252034187316898,
		2.5933480262756349,
		107.25128936767578]
	},
	{
		"bufferView":5,
		"type":"VEC3",
		"componentType":5126,
		"count":166,
		"byteOffset":12,
		"min":[-0.983273983001709,
		-0.9865117073059082,
		-0.9832738041877747],
		"max":[0.983273983001709,
		0.9865115880966187,
		0.9832738041877747]
	},
	{
		"bufferView":5,
		"type":"VEC2",
		"componentType":5126,
		"count":166,
		"byteOffset":24,
		"min":[0.0,
		0.0],
		"max":[1.0,
		1.0]
	},
	{
		"bufferView":6,
		"type":"SCALAR",
		"componentType":5126,
		"count":361,
		"byteOffset":0,
		"min":[0.0],
		"max":[12.0]
	},
	{
		"bufferView":6,
		"type":"VEC3",
		"componentType":5126,
		"count":361,
		"byteOffset":1444,
		"min":[0.2800000011920929,
		0.041600000113248828,
		1.0],
		"max":[0.2800000011920929,
		1.0399999618530274,
		1.0]
	},
	{
		"bufferView":7,
		"type":"SCALAR",
		"componentType":5123,
		"count":36,
		"byteOffset":0,
		"min":[0],
		"max":[23]
	},
	{
		"bufferView":8,
		"type":"VEC3",
		"componentType":5126,
		"count":24,
		"byteOffset":0,
		"min":[-12.0,
		-12.171545028686524,
		-114.0],
		"max":[12.0,
		12.171545028686524,
		114.0]
	},
	{
		"bufferView":8,
		"type":"VEC3",
		"componentType":5126,
		"count":24,
		"byteOffset":12,
		"min":[-1.0,
		-1.0,
		-1.0],
		"max":[1.0,
		1.0,
		1.0]
	},
	{
		"bufferView":8,
		"type":"VEC2",
		"componentType":5126,
		"count":24,
		"byteOffset":24,
		"min":[0.0,
		0.0],
		"max":[1.0,
		1.0]
	},
	{
		"bufferView":9,
		"type":"SCALAR",
		"componentType":5123,
		"count":36,
		"byteOffset":0,
		"min":[0],
		"max":[23]
	},
	{
		"bufferView":10,
		"type":"VEC3",
		"componentType":5126,
		"count":24,
		"byteOffset":0,
		"min":[-26.5,
		-7.171544551849365,
		-125.0],
		"max":[26.5,
		7.171544551849365,
		125.0]
	},
	{
		"bufferView":10,
		"type":"VEC3",
		"componentType":5126,
		"count":24,
		"byteOffset":12,
		"min":[-1.0,
		-1.0,
		-1.0],
		"max":[1.0,
		1.0,
		1.0]
	},
	{
		"bufferView":10,
		"type":"VEC2",
		"componentType":5126,
		"count":24,
		"byteOffset":24,
		"min":[0.0,
		0.0],
		"max":[1.0,
		1.0]
	},
	{
		"bufferView":11,
		"type":"SCALAR",
		"componentType":5123,
		"count":72,
		"byteOffset":0,
		"min":[0],
		"max":[31]
	},
	{
		"bufferView":12,
		"type":"VEC3",
		"componentType":5126,
		"count":32,
		"byteOffset":0,
		"min":[-13.0,
		-241.17153930664063,
		-118.0],
		"max":[13.0,
		241.17153930664063,
		118.0]
	},
	{
		"bufferView":12,
		"type":"VEC3",
		"componentType":5126,
		"count":32,
		"byteOffset":12,
		"min":[-1.0,
		-1.0,
		-1.0],
		"max":[1.0,
		1.0,
		1.0]
	},
	{
		"bufferView":12,
		"type":"VEC2",
		"componentType":5126,
		"count":32,
		"byteOffset":24,
		"min":[0.0,
		0.0],
		"max":[1.0,
		1.0]
	},
	{
		"bufferView":13,
		"type":"SCALAR",
		"componentType":5123,
		"count":24,
		"byteOffset":0,
		"min":[0],
		"max":[15]
	},
	{
		"bufferView":14,
		"type":"VEC3",
		"componentType":5126,
		"count":16,
		"byteOffset":0,
		"min":[-90.82520294189453,
		-227.25128173828126,
		-95.75128936767578],
		"max":[-79.0,
		227.25128173828126,
		95.75128936767578]
	},
	{
		"bufferView":14,
		"type":"VEC3",
		"componentType":5126,
		"count":16,
		"byteOffset":12,
		"min":[0.0,
		-1.0,
		-1.0],
		"max":[0.0,
		1.0,
		1.0]
	},
	{
		"bufferView":14,
		"type":"VEC2",
		"componentType":5126,
		"count":16,
		"byteOffset":24,
		"min":[0.0,
		0.0],
		"max":[1.0,
		1.0]
	},
	{
		"bufferView":15,
		"type":"SCALAR",
		"componentType":5123,
		"count":6,
		"byteOffset":0,
		"min":[0],
		"max":[3]
	},
	{
		"bufferView":16,
		"type":"VEC3",
		"componentType":5126,
		"count":4,
		"byteOffset":0,
		"min":[-90.82520294189453,
		-227.25128173828126,
		-95.75128936767578],
		"max":[-90.82520294189453,
		227.25128173828126,
		95.75128936767578]
	},
	{
		"bufferView":16,
		"type":"VEC3",
		"componentType":5126,
		"count":4,
		"byteOffset":12,
		"min":[1.0,
		0.0,
		0.0],
		"max":[1.0,
		0.0,
		0.0]
	},
	{
		"bufferView":16,
		"type":"VEC2",
		"componentType":5126,
		"count":4,
		"byteOffset":24,
		"min":[0.0,
		0.0],
		"max":[1.0,
		1.0]
	},
	{
		"bufferView":17,
		"type":"SCALAR",
		"componentType":5123,
		"count":24,
		"byteOffset":0,
		"min":[0],
		"max":[15]
	},
	{
		"bufferView":18,
		"type":"VEC3",
		"componentType":5126,
		"count":16,
		"byteOffset":0,
		"min":[41.65114974975586,
		-227.25128173828126,
		-95.75128936767578],
		"max":[53.83955764770508,
		227.25128173828126,
		95.75128936767578]
	},
	{
		"bufferView":18,
		"type":"VEC3",
		"componentType":5126,
		"count":16,
		"byteOffset":12,
		"min":[0.0,
		-1.0,
		-1.0],
		"max":[0.0,
		1.0,
		1.0]
	},
	{
		"bufferView":18,
		"type":"VEC2",
		"componentType":5126,
		"count":16,
		"byteOffset":24,
		"min":[0.0,
		0.0],
		"max":[1.0,
		1.0]
	},
	{
		"bufferView":19,
		"type":"SCALAR",
		"componentType":5123,
		"count":6,
		"byteOffset":0,
		"min":[0],
		"max":[3]
	},
	{
		"bufferView":20,
		"type":"VEC3",
		"componentType":5126,
		"count":4,
		"byteOffset":0,
		"min":[53.83955764770508,
		-227.25128173828126,
		-95.75128936767578],
		"max":[53.83955764770508,
		227.25128173828126,
		95.75128936767578]
	},
	{
		"bufferView":20,
		"type":"VEC3",
		"componentType":5126,
		"count":4,
		"byteOffset":12,
		"min":[-1.0,
		0.0,
		0.0],
		"max":[-1.0,
		0.0,
		0.0]
	},
	{
		"bufferView":20,
		"type":"VEC2",
		"componentType":5126,
		"count":4,
		"byteOffset":24,
		"min":[0.0,
		0.0],
		"max":[1.0,
		1.0]
	}],
	"bufferViews":[{
		"buffer":0,
		"byteOffset":0,
		"byteLength":7220
	},
	{
		"buffer":1,
		"byteOffset":0,
		"byteLength":1224,
		"target":34963
	},
	{
		"buffer":1,
		"byteOffset":1224,
		"byteLength":5312,
		"target":34962,
		"byteStride":32
	},
	{
		"buffer":2,
		"byteOffset":0,
		"byteLength":5776
	},
	{
		"buffer":3,
		"byteOffset":0,
		"byteLength":1224,
		"target":34963
	},
	{
		"buffer":3,
		"byteOffset":1224,
		"byteLength":5312,
		"target":34962,
		"byteStride":32
	},
	{
		"buffer":4,
		"byteOffset":0,
		"byteLength":5776
	},
	{
		"buffer":5,
		"byteOffset":0,
		"byteLength":72,
		"target":34963
	},
	{
		"buffer":5,
		"byteOffset":72,
		"byteLength":768,
		"target":34962,
		"byteStride":32
	},
	{
		"buffer":6,
		"byteOffset":0,
		"byteLength":72,
		"target":34963
	},
	{
		"buffer":6,
		"byteOffset":72,
		"byteLength":768,
		"target":34962,
		"byteStride":32
	},
	{
		"buffer":7,
		"byteOffset":0,
		"byteLength":144,
		"target":34963
	},
	{
		"buffer":7,
		"byteOffset":144,
		"byteLength":1024,
		"target":34962,
		"byteStride":32
	},
	{
		"buffer":8,
		"byteOffset":0,
		"byteLength":48,
		"target":34963
	},
	{
		"buffer":8,
		"byteOffset":48,
		"byteLength":512,
		"target":34962,
		"byteStride":32
	},
	{
		"buffer":9,
		"byteOffset":0,
		"byteLength":12,
		"target":34963
	},
	{
		"buffer":9,
		"byteOffset":12,
		"byteLength":128,
		"target":34962,
		"byteStride":32
	},
	{
		"buffer":10,
		"byteOffset":0,
		"byteLength":48,
		"target":34963
	},
	{
		"buffer":10,
		"byteOffset":48,
		"byteLength":512,
		"target":34962,
		"byteStride":32
	},
	{
		"buffer":11,
		"byteOffset":0,
		"byteLength":12,
		"target":34963
	},
	{
		"buffer":11,
		"byteOffset":12,
		"byteLength":128,
		"target":34962,
		"byteStride":32
	}],
	"materials":[{
		"name":"Window 2",
		"pbrMetallicRoughness":{
			"baseColorFactor":[0.28748790450507619,
			0.1467196162387304,
			0.22414217478522042,
			1.0],
			"metallicFactor":0.0,
			"roughnessFactor":0.44619999999999995
		},
		"emissiveFactor":[0.0,
		0.0,
		0.0],
		"alphaMode":"OPAQUE",
		"doubleSided":false
	},
	{
		"name":"Window Material",
		"pbrMetallicRoughness":{
			"baseColorFactor":[0.11657089850292471,
			0.32220196346208387,
			0.45928934010152319,
			1.0],
			"metallicFactor":0.0,
			"roughnessFactor":0.9360000000000004
		},
		"emissiveFactor":[0.0,
		0.0,
		0.0],
		"alphaMode":"OPAQUE",
		"doubleSided":false
	}],
	"animations":[{
		"samplers":[{
			"input":0,
			"output":1,
			"interpolation":"LINEAR"
		},
		{
			"input":6,
			"output":7,
			"interpolation":"LINEAR"
		},
		{
			"input":12,
			"output":13,
			"interpolation":"LINEAR"
		}],
		"channels":[{
			"sampler":0,
			"target":{
				"node":0,
				"path":"rotation"
			}
		},
		{
			"sampler":1,
			"target":{
				"node":2,
				"path":"scale"
			}
		},
		{
			"sampler":2,
			"target":{
				"node":3,
				"path":"scale"
			}
		}]
	}]
}